# xmcd
#
# Track frame offsets:
#	150
#	15088
#	29785
#	42923
#	54159
#	67706
#	83240
#	97487
#	112150
#	125123
#	138581
#	152293
#	166712
#	179410
#	192370
#	207870
#	221378
#	233002
#	246169
#	257294
#	269800
#	285619
#	298078
#	313014
#	322543
#	333374
#
# Disc length: 4626 seconds
# Revision: 0
# Processed by: cddbd v1.5.2PL0 Copyright (c) Steve Scherf et al.
# Submitted via: dBpowerAMP V12.0
#
DISCID=7412101a
DTITLE=Various Artist - Charlotte Blues
DYEAR=1927
DGENRE=Blues Mix
TTITLE0=Luke Jordan - Church Bells Blues
TTITLE1=Georgia Yellow Hammers - G Rag
TTITLE2=Beans Hambone - Beans
TTITLE3=Peg Leg Abney - Ev'rything I Got Belongs to You
TTITLE4=Jack Gowdlock - Poor Jane
TTITLE5=Roosevelt Antrim - Complaint to Make
TTITLE6=Scottie Nesbitt - Troubled and Blue
TTITLE7=Luke Jordan - Pick Poor Robin Clean
TTITLE8=Cedar Creek Sheik - Ford V-8
TTITLE9=Curtis Henry - County Jail Blues
TTITLE10=Eddie Kelly's Washboard Band - Poole County Blues
TTITLE11=Andrew and Jim Baxter - Bamalong Blues
TTITLE12=Roosevelt Antrim - I Guess You're Satisfied
TTITLE13=Peg Leg Abney - Dirty Double Crosser
TTITLE14=Luke Jordan - Cocaine Blues
TTITLE15=Virgil Childers - Travellin' Man
TTITLE16=Eddie Kelly's Washboard Band - Goin' Back to Alabama
TTITLE17=Jack Gowdlock - Rollin' Dough Blues
TTITLE18=Scottie Nesbitt - Sundown Blues
TTITLE19=Cedar Creek Sheik - Jimmy Shut His Store Doors
TTITLE20=Andrew and Jim Baxter - K. C. Railroad Blues
TTITLE21=Beans Hambone - Tippin' Out
TTITLE22=Luke Jordan - Travelling Coon
TTITLE23=Virgil Childers - Preacher and the Bear
TTITLE24=Curtis Henry - The Worried Blues
TTITLE25=Andrew and Jim Baxter - The Moore Girl
EXTD=
EXTT0=
EXTT1=
EXTT2=
EXTT3=
EXTT4=
EXTT5=
EXTT6=
EXTT7=
EXTT8=
EXTT9=
EXTT10=
EXTT11=
EXTT12=
EXTT13=
EXTT14=
EXTT15=
EXTT16=
EXTT17=
EXTT18=
EXTT19=
EXTT20=
EXTT21=
EXTT22=
EXTT23=
EXTT24=
EXTT25=
PLAYORDER=
